<?xml version="1.0" encoding="iso-8859-1"?>
<!-- Generator: Adobe Illustrator 17.1.0, SVG Export Plug-In . SVG Version: 6.00 Build 0)  -->
<!DOCTYPE svg PUBLIC "-//W3C//DTD SVG 1.1//EN" "http://www.w3.org/Graphics/SVG/1.1/DTD/svg11.dtd">
<svg xmlns="http://www.w3.org/2000/svg" xmlns:xlink="http://www.w3.org/1999/xlink" version="1.1" id="Capa_1" x="0px" y="0px" viewBox="0 0 441.943 441.943" style="enable-background:new 0 0 441.943 441.943;" xml:space="preserve" width="512px" height="512px">
<g>
	<path d="M406.336,190.52l-85.354-85.354c-38.76-38.76-101.83-38.761-140.591,0l-8.735,8.735l-53.999-53.999   c-21.725-21.724-57.077-21.724-78.804,0C28.328,70.429,22.531,84.422,22.531,99.306c0,14.885,5.796,28.878,16.321,39.402   l28.738,28.738c6.748,6.747,10.463,15.718,10.463,25.26s-3.716,18.513-10.463,25.26c-13.928,13.928-36.591,13.928-50.52,0   c-3.905-3.904-10.237-3.904-14.142,0c-3.905,3.905-3.905,10.237,0,14.143c21.727,21.727,57.078,21.727,78.803,0   c10.525-10.524,16.321-24.518,16.321-39.402c0-14.884-5.796-28.877-16.321-39.402l-28.739-28.738   c-6.747-6.747-10.463-15.718-10.463-25.26s3.716-18.513,10.463-25.26c13.929-13.928,36.592-13.928,50.52,0l53.999,53.998   l-8.736,8.735c-38.761,38.761-38.761,101.83,0,140.593l85.354,85.354c23.738,23.738,54.92,35.607,86.103,35.607   c31.182,0,62.363-11.869,86.103-35.607C453.813,315.248,453.813,237.997,406.336,190.52z M392.193,348.583   c-19.842,19.842-45.896,29.762-71.96,29.759c-26.058-0.002-52.123-9.922-71.96-29.759l-85.354-85.354   c-30.963-30.964-30.963-81.345,0-112.308l31.613-31.612c15.482-15.481,35.818-23.223,56.154-23.223s40.672,7.741,56.153,23.223   l85.354,85.354C431.872,244.342,431.872,308.904,392.193,348.583z" fill="#FFFFFF"/>
	<path d="M302.888,140.73l-52.202,52.202l-52.202-52.202c-3.905-3.904-10.237-3.904-14.143,0c-3.905,3.905-3.905,10.237,0,14.143   l52.202,52.202l-52.202,52.202c-3.905,3.905-3.905,10.237,0,14.143c1.953,1.952,4.512,2.929,7.071,2.929s5.119-0.977,7.071-2.929   L317.03,154.873c3.905-3.905,3.905-10.237,0-14.143C313.124,136.826,306.794,136.826,302.888,140.73z" fill="#FFFFFF"/>
</g>
<g>
</g>
<g>
</g>
<g>
</g>
<g>
</g>
<g>
</g>
<g>
</g>
<g>
</g>
<g>
</g>
<g>
</g>
<g>
</g>
<g>
</g>
<g>
</g>
<g>
</g>
<g>
</g>
<g>
</g>
</svg>
