<?xml version="1.0" encoding="iso-8859-1"?>
<!-- Generator: Adobe Illustrator 17.1.0, SVG Export Plug-In . SVG Version: 6.00 Build 0)  -->
<!DOCTYPE svg PUBLIC "-//W3C//DTD SVG 1.1//EN" "http://www.w3.org/Graphics/SVG/1.1/DTD/svg11.dtd">
<svg xmlns="http://www.w3.org/2000/svg" xmlns:xlink="http://www.w3.org/1999/xlink" version="1.1" id="Capa_1" x="0px" y="0px" viewBox="0 0 442 442" style="enable-background:new 0 0 442 442;" xml:space="preserve" width="512px" height="512px">
<g>
	<path d="M231.122,91.616H34.878C15.646,91.616,0,107.262,0,126.494v115.987c0,19.232,15.646,34.878,34.878,34.878h196.244   c19.231,0,34.878-15.646,34.878-34.878V126.494C266,107.262,250.354,91.616,231.122,91.616z M246,242.481   c0,8.204-6.674,14.878-14.878,14.878H34.878c-8.204,0-14.878-6.674-14.878-14.878V126.494c0-8.204,6.674-14.878,14.878-14.878   h196.244c8.204,0,14.878,6.674,14.878,14.878V242.481z" fill="#FFFFFF"/>
	<path d="M200.806,330.381h-22.864l-8.202-35.286c-1.25-5.38-6.622-8.73-12.004-7.476c-5.379,1.25-8.727,6.625-7.476,12.004   l7.149,30.757h-48.818l7.149-30.757c1.25-5.379-2.097-10.754-7.476-12.004c-5.38-1.253-10.754,2.097-12.004,7.476l-8.202,35.286   H65.194c-5.523,0-10,4.477-10,10s4.477,10,10,10h30.772c0.014,0,0.029,0.002,0.043,0.002c0.019,0,0.038-0.002,0.057-0.002h73.868   c0.019,0,0.038,0.002,0.057,0.002c0.014,0,0.029-0.002,0.043-0.002h30.772c5.523,0,10-4.477,10-10S206.329,330.381,200.806,330.381   z" fill="#FFFFFF"/>
	<path d="M432,91.616H301.507c-5.522,0-10,4.477-10,10v238.765c0,5.523,4.478,10,10,10H432c5.522,0,10-4.477,10-10V101.616   C442,96.094,437.522,91.616,432,91.616z M422,330.381H311.507V111.616H422V330.381z" fill="#FFFFFF"/>
	<path d="M341.507,161.616H392c5.522,0,10-4.477,10-10s-4.478-10-10-10h-50.493c-5.522,0-10,4.477-10,10   S335.984,161.616,341.507,161.616z" fill="#FFFFFF"/>
	<path d="M341.507,201.616H392c5.522,0,10-4.477,10-10s-4.478-10-10-10h-50.493c-5.522,0-10,4.477-10,10   S335.984,201.616,341.507,201.616z" fill="#FFFFFF"/>
	<path d="M366.753,270.381c-8.271,0-15,6.729-15,15s6.729,15,15,15s15-6.729,15-15S375.024,270.381,366.753,270.381z    M366.753,290.381c-2.757,0-5-2.243-5-5s2.243-5,5-5s5,2.243,5,5S369.51,290.381,366.753,290.381z" fill="#FFFFFF"/>
</g>
<g>
</g>
<g>
</g>
<g>
</g>
<g>
</g>
<g>
</g>
<g>
</g>
<g>
</g>
<g>
</g>
<g>
</g>
<g>
</g>
<g>
</g>
<g>
</g>
<g>
</g>
<g>
</g>
<g>
</g>
</svg>
